<?xml version="1.0" encoding="UTF-8"?>
<svg version="1.1" xmlns="http://www.w3.org/2000/svg" width="75" height="75">
<path d="M0 0 C24.75 0 49.5 0 75 0 C75 24.75 75 49.5 75 75 C50.25 75 25.5 75 0 75 C0 50.25 0 25.5 0 0 Z " fill="#FDFAFD" transform="translate(0,0)"/>
<path d="M0 0 C2.475 0.495 2.475 0.495 5 1 C5 2.98 5 4.96 5 7 C5.928125 6.814375 6.85625 6.62875 7.8125 6.4375 C11 6 11 6 14 7 C14 4.69 14 2.38 14 0 C15.32 0.33 16.64 0.66 18 1 C17.95359375 1.73605469 17.9071875 2.47210937 17.859375 3.23046875 C17.51429326 9.4876086 17.51429326 9.4876086 20 15.0625 C20.66 15.701875 21.32 16.34125 22 17 C22 17.66 22 18.32 22 19 C21.01 19.495 21.01 19.495 20 20 C21.04800781 20.16435547 21.04800781 20.16435547 22.1171875 20.33203125 C23.48230469 20.56986328 23.48230469 20.56986328 24.875 20.8125 C25.77992187 20.96332031 26.68484375 21.11414063 27.6171875 21.26953125 C30 22 30 22 32 25 C32.65226562 24.79503906 33.30453125 24.59007813 33.9765625 24.37890625 C38.63474466 22.94297694 43.15149758 21.63796084 48 21 C48.495 22.485 48.495 22.485 49 24 C45.7 25.65 42.4 27.3 39 29 C42.64631321 28.0884217 44.98491063 27.05607135 48.1875 25.1875 C49.06792969 24.68605469 49.94835937 24.18460938 50.85546875 23.66796875 C53.15298492 22.18599079 53.15298492 22.18599079 53.80078125 19.80078125 C53.86652344 19.20652344 53.93226562 18.61226562 54 18 C54.33 18 54.66 18 55 18 C55 28.56 55 39.12 55 50 C30.25 50 5.5 50 -20 50 C-20 35.15 -20 20.3 -20 5 C-19.67 5.99 -19.34 6.98 -19 8 C-17.68 8 -16.36 8 -15 8 C-14.67 6.02 -14.34 4.04 -14 2 C-12.35 1.67 -10.7 1.34 -9 1 C-8.67 3.31 -8.34 5.62 -8 8 C-5.36 7.67 -2.72 7.34 0 7 C0 4.69 0 2.38 0 0 Z " fill="#FEFCFE" transform="translate(20,25)"/>
<path d="M0 0 C8 0 8 0 10 1.1875 C11.30894168 3.55995679 11.21620175 5.3335118 11 8 C11.69351563 7.67773438 12.38703125 7.35546875 13.1015625 7.0234375 C18.73916497 5.03280159 25.57349081 4.92193163 31.296875 6.72265625 C35.07140522 8.71476942 37.40810277 11.06707743 39 15 C39.40677966 20.18644068 39.40677966 20.18644068 38 23 C37.01 23 36.02 23 35 23 C35 23.66 35 24.32 35 25 C35.99 25.33 36.98 25.66 38 26 C36.68 26 35.36 26 34 26 C33.67 27.32 33.34 28.64 33 30 C33.66 29.67 34.32 29.34 35 29 C37.3329866 28.95977609 39.66706666 28.95679753 42 29 C42 30.32 42 31.64 42 33 C39.91796875 34.703125 39.91796875 34.703125 37.1875 36.25 C36.29417969 36.77078125 35.40085938 37.2915625 34.48046875 37.828125 C32 39 32 39 29 39 C28.67 39.66 28.34 40.32 28 41 C27.34 40.34 26.68 39.68 26 39 C27.62249941 38.16180842 29.24808497 37.3295884 30.875 36.5 C31.77992187 36.0359375 32.68484375 35.571875 33.6171875 35.09375 C36 34 36 34 38 34 C37.67 33.34 37.34 32.68 37 32 C30.95215696 33.21498948 30.95215696 33.21498948 25.125 35.1875 C23 36 23 36 20 35 C19.67 34.34 19.34 33.68 19 33 C16.30202898 32.36139231 13.66633377 31.83174758 10.9375 31.375 C10.17888672 31.2409375 9.42027344 31.106875 8.63867188 30.96875 C6.76047742 30.63799878 4.88039662 30.31799266 3 30 C3 29.67 3 29.34 3 29 C5.64 29 8.28 29 11 29 C10.175 28.071875 9.35 27.14375 8.5 26.1875 C5.02819707 21.43455289 5.53999268 16.65297887 6 11 C5.01 10.67 4.02 10.34 3 10 C3 12.31 3 14.62 3 17 C2.01 17 1.02 17 0 17 C0 11.39 0 5.78 0 0 Z " fill="#FAE7FC" transform="translate(31,15)"/>
<path d="M0 0 C0.99 1.485 0.99 1.485 2 3 C2.65226562 2.79503906 3.30453125 2.59007812 3.9765625 2.37890625 C8.63474466 0.94297694 13.15149758 -0.36203916 18 -1 C18.495 0.485 18.495 0.485 19 2 C17.37750059 2.83819158 15.75191503 3.6704116 14.125 4.5 C13.22007813 4.9640625 12.31515625 5.428125 11.3828125 5.90625 C9 7 9 7 7 7 C7 7.66 7 8.32 7 9 C4.08175756 10.66674321 2.02405621 11.2432008 -1.328125 11.1953125 C-2.12734375 11.18886719 -2.9265625 11.18242188 -3.75 11.17578125 C-4.575 11.15902344 -5.4 11.14226563 -6.25 11.125 C-7.09046875 11.11597656 -7.9309375 11.10695313 -8.796875 11.09765625 C-10.86470604 11.07415817 -12.93238995 11.03828908 -15 11 C-15 11.66 -15 12.32 -15 13 C-19.21018853 14.5788207 -19.21018853 14.5788207 -22 14 C-25.18954411 11.03233722 -27.70176931 7.6950774 -30 4 C-30 3.34 -30 2.68 -30 2 C-19.87759278 -2.23816676 -10.62709315 -3.7566473 0 0 Z " fill="#FCF3FD" transform="translate(50,47)"/>
<path d="M0 0 C8 0 8 0 10 1.1875 C11.30894168 3.55995679 11.21620175 5.3335118 11 8 C11.68707031 7.67515625 12.37414063 7.3503125 13.08203125 7.015625 C16.43998856 5.84685806 19.13902279 5.73381538 22.6875 5.75 C23.82574219 5.74484375 24.96398437 5.7396875 26.13671875 5.734375 C29 6 29 6 31 8 C30.04738281 7.97679687 29.09476563 7.95359375 28.11328125 7.9296875 C26.85902344 7.91164063 25.60476562 7.89359375 24.3125 7.875 C23.07113281 7.85179687 21.82976563 7.82859375 20.55078125 7.8046875 C17.1596535 7.99121818 14.98117436 8.42140767 12 10 C10.79117904 12.00016466 10.79117904 12.00016466 10 14 C9.01 14.495 9.01 14.495 8 15 C7.49576981 20.29441695 8.81076967 22.81413519 12 27 C8.83884224 25.63016497 8.0072908 25.0109362 6 22 C5.8046875 19.30078125 5.8046875 19.30078125 5.875 16.3125 C5.89304687 15.31863281 5.91109375 14.32476562 5.9296875 13.30078125 C5.95289063 12.54152344 5.97609375 11.78226563 6 11 C5.01 10.67 4.02 10.34 3 10 C3 12.31 3 14.62 3 17 C2.01 17 1.02 17 0 17 C0 11.39 0 5.78 0 0 Z " fill="#9D56B0" transform="translate(31,15)"/>
<path d="M0 0 C1.5 1.125 1.5 1.125 3 3 C3.25265405 6.09501208 3.39935013 8.20129973 2 11 C1.01 11 0.02 11 -1 11 C-1 11.66 -1 12.32 -1 13 C-0.01 13.33 0.98 13.66 2 14 C0.68 14 -0.64 14 -2 14 C-2.33 15.32 -2.66 16.64 -3 18 C-2.34 17.67 -1.68 17.34 -1 17 C1.3329866 16.95977609 3.66706666 16.95679753 6 17 C6 18.32 6 19.64 6 21 C3.91796875 22.703125 3.91796875 22.703125 1.1875 24.25 C0.29417969 24.77078125 -0.59914062 25.2915625 -1.51953125 25.828125 C-4 27 -4 27 -7 27 C-7.33 27.66 -7.66 28.32 -8 29 C-8.66 28.34 -9.32 27.68 -10 27 C-8.37750059 26.16180842 -6.75191503 25.3295884 -5.125 24.5 C-4.22007813 24.0359375 -3.31515625 23.571875 -2.3828125 23.09375 C0 22 0 22 2 22 C1.505 21.01 1.505 21.01 1 20 C-5.04784304 21.21498948 -5.04784304 21.21498948 -10.875 23.1875 C-13 24 -13 24 -16 23 C-16.33 22.34 -16.66 21.68 -17 21 C-19.69797102 20.36139231 -22.33366623 19.83174758 -25.0625 19.375 C-25.82111328 19.2409375 -26.57972656 19.106875 -27.36132812 18.96875 C-29.23952258 18.63799878 -31.11960338 18.31799266 -33 18 C-33 17.67 -33 17.34 -33 17 C-28.48382401 16.92345464 -24.40914783 16.89771304 -20 18 C-20 17.67 -20 17.34 -20 17 C-19.16855469 16.93941406 -18.33710937 16.87882812 -17.48046875 16.81640625 C-15.85044922 16.69072266 -15.85044922 16.69072266 -14.1875 16.5625 C-13.10855469 16.48128906 -12.02960937 16.40007813 -10.91796875 16.31640625 C-7.94010095 16.09787539 -7.94010095 16.09787539 -5 15 C-4.505 14.154375 -4.01 13.30875 -3.5 12.4375 C-3.005 11.633125 -2.51 10.82875 -2 10 C-1.01 10 -0.02 10 1 10 C1.08004482 6.4780279 1.04005702 3.38018531 0 0 Z " fill="#B07EBC" transform="translate(67,27)"/>
<path d="M0 0 C-1.98 0.66 -3.96 1.32 -6 2 C-3.4366779 6.94874601 -3.4366779 6.94874601 1.11328125 9.6875 C3.59597163 9.95100279 6.00364127 10.01911454 8.5 10 C9.76263672 10.03673828 9.76263672 10.03673828 11.05078125 10.07421875 C15.16741028 10.15849619 18.98959875 10.05190853 23 9 C21.15741754 10.92863714 19.65121023 11.92009594 16.98242188 12.24755859 C14.56572541 12.29505495 12.16601788 12.26111304 9.75 12.1875 C8.90953125 12.17396484 8.0690625 12.16042969 7.203125 12.14648438 C5.13514062 12.11123464 3.06748729 12.0574302 1 12 C1 12.66 1 13.32 1 14 C-3.21018853 15.5788207 -3.21018853 15.5788207 -6 15 C-9.18954411 12.03233722 -11.70176931 8.6950774 -14 5 C-14 4.34 -14 3.68 -14 3 C-12.23358317 2.3012307 -10.46167336 1.61633417 -8.6875 0.9375 C-7.20830078 0.36322266 -7.20830078 0.36322266 -5.69921875 -0.22265625 C-3 -1 -3 -1 0 0 Z " fill="#FAEBFD" transform="translate(34,46)"/>
<path d="M0 0 C2 0.3125 2 0.3125 4 1 C4.33 1.66 4.66 2.32 5 3 C4.67 3.66 4.34 4.32 4 5 C4.99 5 5.98 5 7 5 C7 6.32 7 7.64 7 9 C6.01 9 5.02 9 4 9 C4.33 9.99 4.66 10.98 5 12 C3 14 3 14 0.375 14.125 C-0.40875 14.08375 -1.1925 14.0425 -2 14 C-2 14.66 -2 15.32 -2 16 C-6.75207471 16.43200679 -9.78210698 14.98489083 -14 13 C-14 12.01 -14 11.02 -14 10 C-14.66 9.67 -15.32 9.34 -16 9 C-16 7.68 -16 6.36 -16 5 C-15.34 5 -14.68 5 -14 5 C-13.67 4.01 -13.34 3.02 -13 2 C-13 3.32 -13 4.64 -13 6 C-13.66 6 -14.32 6 -15 6 C-15 6.66 -15 7.32 -15 8 C-14.01 8 -13.02 8 -12 8 C-11.34 6.35 -10.68 4.7 -10 3 C-9.34 3.33 -8.68 3.66 -8 4 C-8 4.99 -8 5.98 -8 7 C-7.34 6.34 -6.68 5.68 -6 5 C-5.67 5.99 -5.34 6.98 -5 8 C-5.99 8.99 -6.98 9.98 -8 11 C-6.02 11 -4.04 11 -2 11 C-1.67 10.01 -1.34 9.02 -1 8 C-0.67 8.33 -0.34 8.66 0 9 C0.66 7.68 1.32 6.36 2 5 C2 5.99 2 6.98 2 8 C2.99 8 3.98 8 5 8 C5 7.34 5 6.68 5 6 C4.34 6 3.68 6 3 6 C2.71125 5.360625 2.4225 4.72125 2.125 4.0625 C1.17176549 1.84793921 1.17176549 1.84793921 -1 1 C-0.67 0.67 -0.34 0.34 0 0 Z " fill="#AA6FBE" transform="translate(58,26)"/>
<path d="M0 0 C1.65 0 3.3 0 5 0 C5.33 1.32 5.66 2.64 6 4 C6.99 3.67 7.98 3.34 9 3 C9.33 4.65 9.66 6.3 10 8 C10.66 8 11.32 8 12 8 C12 8.66 12 9.32 12 10 C11.401875 10.12375 10.80375 10.2475 10.1875 10.375 C7.73768652 10.95475985 7.73768652 10.95475985 5 13 C1.8125 13.125 1.8125 13.125 -1 13 C-0.67 12.01 -0.34 11.02 0 10 C0.66 10 1.32 10 2 10 C1.67 9.34 1.34 8.68 1 8 C-0.32 8.99 -1.64 9.98 -3 11 C-2.67 9.35 -2.34 7.7 -2 6 C-3.20628008 8.33214148 -4.1654738 10.49642139 -5 13 C-6.5 11.625 -6.5 11.625 -8 10 C-8 9.34 -8 8.68 -8 8 C-7.34 7.67 -6.68 7.34 -6 7 C-5.34444881 4.47266765 -5.34444881 4.47266765 -5 2 C-3.35 2 -1.7 2 0 2 C0 1.34 0 0.68 0 0 Z " fill="#BE8ECD" transform="translate(51,24)"/>
<path d="M0 0 C0.99 0 1.98 0 3 0 C3 2.31 3 4.62 3 7 C4.65 7 6.3 7 8 7 C8 4.69 8 2.38 8 0 C8.99 0 9.98 0 11 0 C11 5.61 11 11.22 11 17 C10.01 17 9.02 17 8 17 C7.67 15.02 7.34 13.04 7 11 C5.68 10.67 4.36 10.34 3 10 C3 12.31 3 14.62 3 17 C2.01 17 1.02 17 0 17 C0 11.39 0 5.78 0 0 Z " fill="#BC1AD2" transform="translate(17,15)"/>
<path d="M0 0 C1.859375 0.1015625 1.859375 0.1015625 4 1 C5.265625 3.8359375 5.265625 3.8359375 6.25 7.375 C6.58515625 8.53773437 6.9203125 9.70046875 7.265625 10.8984375 C8 14 8 14 8 17 C7.01 17 6.02 17 5 17 C4.67 15.02 4.34 13.04 4 11 C2.04105639 11.11306697 2.04105639 11.11306697 0 12 C-1.29660434 14.49034386 -1.29660434 14.49034386 -2 17 C-2.99 17 -3.98 17 -5 17 C-3.83348574 11.07136283 -2.24480642 5.61201606 0 0 Z " fill="#A617DB" transform="translate(7,15)"/>
<path d="M0 0 C3.375 0.3125 3.375 0.3125 7 1 C7.66 1.99 8.32 2.98 9 4 C9.65226562 3.79503906 10.30453125 3.59007812 10.9765625 3.37890625 C15.63474466 1.94297694 20.15149758 0.63796084 25 0 C25.33 0.99 25.66 1.98 26 3 C21.44113471 6.43875097 17.33992313 8.33850665 11.5859375 7.734375 C7.30752635 7.07404579 3.15175193 6.23101551 -1 5 C-1.33 4.34 -1.66 3.68 -2 3 C-1.34 2.01 -0.68 1.02 0 0 Z " fill="#FCECFD" transform="translate(43,46)"/>
<path d="M0 0 C2.64 0 5.28 0 8 0 C10 2 10 2 10 5 C7.69 4.34 5.38 3.68 3 3 C3 4.65 3 6.3 3 8 C4.65 7.67 6.3 7.34 8 7 C7.67 7.99 7.34 8.98 7 10 C5.68 10 4.36 10 3 10 C3 12.31 3 14.62 3 17 C2.01 17 1.02 17 0 17 C0 11.39 0 5.78 0 0 Z " fill="#C21FD4" transform="translate(31,15)"/>
<path d="M0 0 C0.33 0 0.66 0 1 0 C1.33 2.31 1.66 4.62 2 7 C1.38125 7.2475 0.7625 7.495 0.125 7.75 C-2.38710296 9.22770762 -2.76107344 10.43955177 -4 13 C-7.28519475 14.09506492 -9.73663415 14.09960608 -13.1875 14.0625 C-14.81751953 14.04896484 -14.81751953 14.04896484 -16.48046875 14.03515625 C-17.31191406 14.02355469 -18.14335938 14.01195312 -19 14 C-18.67 12.68 -18.34 11.36 -18 10 C-15.36 10.66 -12.72 11.32 -10 12 C-10 11.34 -10 10.68 -10 10 C-8.02 9.34 -6.04 8.68 -4 8 C-4 7.01 -4 6.02 -4 5 C-2.68 5 -1.36 5 0 5 C0 3.35 0 1.7 0 0 Z " fill="#FCEBFD" transform="translate(66,30)"/>
<path d="M0 0 C3.125 0.1875 3.125 0.1875 6.125 2.1875 C5.75 4.625 5.75 4.625 5.125 7.1875 C2.41620665 8.54189668 0.11566732 8.25251451 -2.875 8.1875 C-2.545 7.1975 -2.215 6.2075 -1.875 5.1875 C-1.215 5.1875 -0.555 5.1875 0.125 5.1875 C-0.205 4.5275 -0.535 3.8675 -0.875 3.1875 C-2.195 4.1775 -3.515 5.1675 -4.875 6.1875 C-3.80901015 0.24841371 -3.80901015 0.24841371 0 0 Z " fill="#E1B6EB" transform="translate(52.875,28.8125)"/>
<path d="M0 0 C1.485 0.99 1.485 0.99 3 2 C5.04027784 2.37994403 5.04027784 2.37994403 7.2734375 2.44921875 C8.0984375 2.49240234 8.9234375 2.53558594 9.7734375 2.58007812 C10.63195313 2.61552734 11.49046875 2.65097656 12.375 2.6875 C13.22578125 2.73455078 14.0765625 2.78160156 14.953125 2.83007812 C19.13551211 3.02877409 22.91787224 3.1171255 27 2 C25.15741754 3.92863714 23.65121023 4.92009594 20.98242188 5.24755859 C18.56572541 5.29505495 16.16601788 5.26111304 13.75 5.1875 C12.90953125 5.17396484 12.0690625 5.16042969 11.203125 5.14648438 C9.13514062 5.11123464 7.06748729 5.0574302 5 5 C5 5.66 5 6.32 5 7 C3.68 6.67 2.36 6.34 1 6 C1.66 6 2.32 6 3 6 C2.2575 5.071875 2.2575 5.071875 1.5 4.125 C0 2 0 2 0 0 Z " fill="#A975B5" transform="translate(30,53)"/>
<path d="M0 0 C2.97 0.495 2.97 0.495 6 1 C6 6.28 6 11.56 6 17 C5.01 17.33 4.02 17.66 3 18 C2.80438131 15.9174133 2.61880687 13.83388144 2.4375 11.75 C2.33308594 10.58984375 2.22867187 9.4296875 2.12109375 8.234375 C2.01801913 5.48128523 2.13786527 3.580018 3 1 C2.01 0.67 1.02 0.34 0 0 Z " fill="#FED2FE" transform="translate(25,14)"/>
<path d="M0 0 C2 0.3125 2 0.3125 4 1 C4.33 1.66 4.66 2.32 5 3 C4.67 3.66 4.34 4.32 4 5 C4.99 5 5.98 5 7 5 C7 6.32 7 7.64 7 9 C6.01 9 5.02 9 4 9 C4.33 9.99 4.66 10.98 5 12 C4.01 12.495 4.01 12.495 3 13 C2.34 12.34 1.68 11.68 1 11 C0.01 11.495 0.01 11.495 -1 12 C-3.3329866 12.04022391 -5.66706666 12.04320247 -8 12 C-8 11.67 -8 11.34 -8 11 C-6.02 11 -4.04 11 -2 11 C-1.67 10.01 -1.34 9.02 -1 8 C-0.67 8.33 -0.34 8.66 0 9 C0.66 7.68 1.32 6.36 2 5 C2 5.99 2 6.98 2 8 C2.99 8 3.98 8 5 8 C5 7.34 5 6.68 5 6 C4.34 6 3.68 6 3 6 C2.71125 5.360625 2.4225 4.72125 2.125 4.0625 C1.17176549 1.84793921 1.17176549 1.84793921 -1 1 C-0.67 0.67 -0.34 0.34 0 0 Z " fill="#8D4FA3" transform="translate(58,26)"/>
<path d="M0 0 C-1.98 0.66 -3.96 1.32 -6 2 C-5.34 3.65 -4.68 5.3 -4 7 C-5.98 6.01 -7.96 5.02 -10 4 C-9.34 6.31 -8.68 8.62 -8 11 C-12.875 6.375 -12.875 6.375 -14 3 C-12.23358317 2.3012307 -10.46167336 1.61633417 -8.6875 0.9375 C-7.20830078 0.36322266 -7.20830078 0.36322266 -5.69921875 -0.22265625 C-3 -1 -3 -1 0 0 Z " fill="#89539E" transform="translate(34,46)"/>
<path d="M0 0 C3.375 0.3125 3.375 0.3125 7 1 C7.66 1.99 8.32 2.98 9 4 C8.67 4.66 8.34 5.32 8 6 C6.5199159 5.88637738 5.04089926 5.75877092 3.5625 5.625 C2.73878906 5.55539063 1.91507813 5.48578125 1.06640625 5.4140625 C0.38449219 5.27742188 -0.29742187 5.14078125 -1 5 C-1.33 4.34 -1.66 3.68 -2 3 C-1.34 2.01 -0.68 1.02 0 0 Z " fill="#DDBDE3" transform="translate(43,46)"/>
<path d="M0 0 C2.375 0.625 2.375 0.625 5 2 C6.64997163 5.61422357 7 7.99834806 7 12 C5.68 12 4.36 12 3 12 C3 10.68 3 9.36 3 8 C2.01 8 1.02 8 0 8 C0.185625 7.05125 0.37125 6.1025 0.5625 5.125 C1.28686632 2.10131207 1.28686632 2.10131207 0 0 Z " fill="#E4C4EA" transform="translate(62,23)"/>
<path d="M0 0 C1.32 0.33 2.64 0.66 4 1 C4 4.96 4 8.92 4 13 C3.34 13 2.68 13 2 13 C1.67 11.35 1.34 9.7 1 8 C-0.32 7.67 -1.64 7.34 -3 7 C-2.01 7 -1.02 7 0 7 C0 4.69 0 2.38 0 0 Z " fill="#FBD5FE" transform="translate(34,25)"/>
<path d="M0 0 C0.99 0 1.98 0 3 0 C3 5.61 3 11.22 3 17 C2.01 17 1.02 17 0 17 C-0.17942163 13.05272412 -0.09350689 10.4019487 2 7 C1.34 7 0.68 7 0 7 C0 4.69 0 2.38 0 0 Z " fill="#B835C8" transform="translate(25,15)"/>
<path d="M0 0 C6.0546875 -0.1953125 6.0546875 -0.1953125 8 0 C10 2 10 2 10 5 C9.1646875 4.566875 9.1646875 4.566875 8.3125 4.125 C5.91505355 2.9586747 3.48403061 1.9660119 1 1 C0.67 2.32 0.34 3.64 0 5 C0 3.35 0 1.7 0 0 Z " fill="#B41EC4" transform="translate(31,15)"/>
<path d="M0 0 C2.31 0 4.62 0 7 0 C6.67 0.66 6.34 1.32 6 2 C5.34 1.67 4.68 1.34 4 1 C4.66 3.31 5.32 5.62 6 8 C1.125 3.375 1.125 3.375 0 0 Z " fill="#B383C3" transform="translate(20,49)"/>
<path d="M0 0 C0.66 0 1.32 0 2 0 C2 3.63 2 7.26 2 11 C0.35 11 -1.3 11 -3 11 C-3 10.34 -3 9.68 -3 9 C-2.01 9 -1.02 9 0 9 C0 6.03 0 3.06 0 0 Z " fill="#EFCBF2" transform="translate(69,29)"/>
<path d="M0 0 C2.12508244 3.18762365 2.5020163 5.26512223 3 9 C2.01 9 1.02 9 0 9 C-1.125 3.375 -1.125 3.375 0 0 Z " fill="#AC24C6" transform="translate(12,23)"/>
<path d="M0 0 C0.66 0 1.32 0 2 0 C2 0.99 2 1.98 2 3 C2.66 3 3.32 3 4 3 C4 3.99 4 4.98 4 6 C2.02 6 0.04 6 -2 6 C-1.67 5.01 -1.34 4.02 -1 3 C-0.34 3 0.32 3 1 3 C0.67 2.01 0.34 1.02 0 0 Z " fill="#F6D4FC" transform="translate(52,31)"/>
<path d="M0 0 C0.99 0.66 1.98 1.32 3 2 C2.505 2.391875 2.01 2.78375 1.5 3.1875 C-0.45593143 5.55091715 -0.24207973 7.01435003 0 10 C-2 8.625 -2 8.625 -4 7 C-4 6.34 -4 5.68 -4 5 C-3.34 4.67 -2.68 4.34 -2 4 C-2 3.01 -2 2.02 -2 1 C-1.34 0.67 -0.68 0.34 0 0 Z " fill="#FAD3FF" transform="translate(47,27)"/>
<path d="M0 0 C0.99 0.33 1.98 0.66 3 1 C3 1.66 3 2.32 3 3 C2.34 3 1.68 3 1 3 C1 3.66 1 4.32 1 5 C-0.32 4.67 -1.64 4.34 -3 4 C-3 3.01 -3 2.02 -3 1 C-2.01 1.33 -1.02 1.66 0 2 C0 1.34 0 0.68 0 0 Z " fill="#C9A4D3" transform="translate(30,56)"/>
<path d="M0 0 C1.53166168 4.08443115 0.63081652 7.79455657 0 12 C-0.99 12 -1.98 12 -3 12 C-2.68950274 10.56206608 -2.3765224 9.1246682 -2.0625 7.6875 C-1.88847656 6.88699219 -1.71445312 6.08648437 -1.53515625 5.26171875 C-1 3 -1 3 0 0 Z " fill="#9725C5" transform="translate(5,20)"/>
<path d="M0 0 C2 1.125 2 1.125 4 3 C4.25 6.1875 4.25 6.1875 4 9 C3.34 9 2.68 9 2 9 C1.34 6.03 0.68 3.06 0 0 Z " fill="#FFE9FF" transform="translate(12,19)"/>
<path d="M0 0 C1.32 0 2.64 0 4 0 C3.67 1.65 3.34 3.3 3 5 C2.01 5 1.02 5 0 5 C0 3.35 0 1.7 0 0 Z " fill="#FDDBFE" transform="translate(34,18)"/>
<path d="M0 0 C2.00720923 0.28674418 4.0085944 0.61866701 6 1 C6 2.65 6 4.3 6 6 C5.34 5.01 4.68 4.02 4 3 C3.01 3 2.02 3 1 3 C0.34 4.32 -0.32 5.64 -1 7 C-1.04254356 5.00045254 -1.04080783 2.99958364 -1 1 C-0.67 0.67 -0.34 0.34 0 0 Z " fill="#F5D2FB" transform="translate(6,13)"/>
<path d="M0 0 C2.475 0.495 2.475 0.495 5 1 C5 1.66 5 2.32 5 3 C6.32 3.33 7.64 3.66 9 4 C6.03 3.67 3.06 3.34 0 3 C0 2.01 0 1.02 0 0 Z " fill="#D5A6DF" transform="translate(42,42)"/>
<path d="M0 0 C1.32 0 2.64 0 4 0 C3.67 1.32 3.34 2.64 3 4 C2.34 3.67 1.68 3.34 1 3 C0.01 3.99 -0.98 4.98 -2 6 C-1.34 4.02 -0.68 2.04 0 0 Z " fill="#FBD2FE" transform="translate(7,26)"/>
<path d="M0 0 C0.99 0 1.98 0 3 0 C2.67 2.31 2.34 4.62 2 7 C1.34 7 0.68 7 0 7 C0 4.69 0 2.38 0 0 Z " fill="#B12AC2" transform="translate(25,15)"/>
</svg>
